# xmcd
#
# Track frame offsets: 
#        150
#        5533
#        26490
#        45700
#        49910
#        72753
#        99685
#        116713
#        139738
#        163213
#        189260
#        207420
#
# Disc length: 3074 seconds
#
# Revision: 4
# Processed by: cddbd v1.5.2PL0 Copyright (c) Steve Scherf et al.
# Submitted via: ExactAudioCopy v1.3
#
DISCID=a90c000c
DTITLE=En Vogue - Born To Sing
DYEAR=1990
DGENRE=R&B
TTITLE0=Party
TTITLE1=Strange
TTITLE2=Lies
TTITLE3=Boogie Woogie Bugle Boy
TTITLE4=Hold On
TTITLE5=Part Of Me
TTITLE6=You Don't Have To Worry
TTITLE7=Time Goes On
TTITLE8=Just Can't Stay Away
TTITLE9=Don't Go
TTITLE10=Luv Lines
TTITLE11=Waitin' On You
EXTD=YEAR: 1990
EXTT0=
EXTT1=
EXTT2=
EXTT3=
EXTT4=
EXTT5=
EXTT6=
EXTT7=
EXTT8=
EXTT9=
EXTT10=
EXTT11=
PLAYORDER=
